<?xml version="1.0" encoding="UTF-8"?>
<!DOCTYPE svg PUBLIC "-//W3C//DTD SVG 1.1//EN" "http://www.w3.org/Graphics/SVG/1.1/DTD/svg11.dtd">
<svg version="1.1" xmlns="http://www.w3.org/2000/svg" xmlns:xlink="http://www.w3.org/1999/xlink" x="0" y="0" width="200" height="200" viewBox="0, 0, 200, 200">
  <g id="Layer_1">
    <path d="M15.634,176.804 Q22.978,176.804 29.314,175.004 Q35.65,173.204 40.402,169.82 Q45.154,166.436 47.818,161.468 Q50.482,156.5 50.482,150.164 L50.482,66.5 L31.474,66.5 L31.474,149.732 Q31.474,152.036 30.034,153.764 Q28.594,155.492 26.362,156.716 Q24.13,157.94 21.25,158.588 Q18.37,159.236 15.634,159.236 z" fill="#000000"/>
    <path d="M114.902,111.572 L114.902,102.5 Q114.902,94.868 113.966,87.956 Q113.03,81.044 109.934,75.788 Q106.838,70.532 101.078,67.364 Q95.318,64.196 85.526,64.196 Q76.31,64.196 70.046,67.004 Q63.782,69.812 60.038,74.852 Q56.294,79.892 54.638,86.948 Q52.982,94.004 52.982,102.5 Q52.982,110.996 54.638,118.052 Q56.294,125.108 60.038,130.148 Q63.782,135.188 70.046,137.996 Q76.31,140.804 85.526,140.804 Q88.118,140.804 91.358,140.588 Q94.598,140.372 98.054,139.868 Q101.51,139.364 104.966,138.428 Q108.422,137.492 111.302,136.052 L111.302,117.332 Q104.678,120.212 98.27,121.508 Q91.862,122.804 85.526,122.804 Q79.046,122.804 76.166,119.492 Q73.286,116.18 72.998,111.572 z M85.526,82.196 Q88.406,82.196 90.278,83.204 Q92.15,84.212 93.23,85.868 Q94.31,87.524 94.742,89.684 Q95.174,91.844 95.318,94.292 L72.854,94.292 Q73.718,89.108 76.454,85.652 Q79.19,82.196 85.526,82.196 z" fill="#000000"/>
    <path d="M182.034,138.5 L168.642,138.5 L167.634,135.908 Q163.746,138.212 158.706,139.508 Q153.666,140.804 149.49,140.804 Q139.986,140.804 133.65,138.284 Q127.314,135.764 123.57,130.868 Q119.826,125.972 118.314,118.844 Q116.802,111.716 116.802,102.5 Q116.802,93.14 118.314,86.012 Q119.826,78.884 123.57,74.06 Q127.314,69.236 133.65,66.716 Q139.986,64.196 149.49,64.196 Q152.514,64.196 156.402,64.988 Q160.29,65.78 163.17,66.932 L163.17,30.5 L182.034,30.5 z M163.17,84.932 Q160.722,83.924 157.194,83.06 Q153.666,82.196 149.778,82.196 Q145.458,82.196 142.794,83.708 Q140.13,85.22 138.618,87.956 Q137.106,90.692 136.602,94.436 Q136.098,98.18 136.098,102.5 Q136.098,106.82 136.602,110.564 Q137.106,114.308 138.618,117.044 Q140.13,119.78 142.794,121.292 Q145.458,122.804 149.778,122.804 Q153.666,122.804 157.194,121.94 Q160.722,121.076 163.17,120.068 z" fill="#000000"/>
    <g>
      <path d="M31.393,26.965 L31.393,46.377 L50.644,46.377 L50.644,26.965 L31.393,26.965 z M38.579,38.424 L33.618,38.424 L33.618,34.864 L38.579,34.864 L38.579,38.424 z M48.419,38.397 L43.458,38.397 L43.458,34.838 L48.419,34.838 L48.419,38.397 z" fill="#000000"/>
      <path d="M54.5,72.593 L49.539,91.25 L32.714,91.25 L27.538,72.593 L27.538,47.463 L54.5,47.463 z" fill="#000000"/>
    </g>
  </g>
</svg>
