<?xml version="1.0" encoding="UTF-8"?>
<!DOCTYPE svg PUBLIC "-//W3C//DTD SVG 1.1//EN" "http://www.w3.org/Graphics/SVG/1.1/DTD/svg11.dtd">
<svg version="1.1" xmlns="http://www.w3.org/2000/svg" xmlns:xlink="http://www.w3.org/1999/xlink" x="0" y="0" width="200" height="200" viewBox="0, 0, 200, 200">
  <g id="Layer_1">
    <path d="M15.634,176.804 Q22.978,176.804 29.314,175.004 Q35.65,173.204 40.402,169.82 Q45.154,166.436 47.818,161.468 Q50.482,156.5 50.482,150.164 L50.482,66.5 L31.474,66.5 L31.474,149.732 Q31.474,152.036 30.034,153.764 Q28.594,155.492 26.362,156.716 Q24.13,157.94 21.25,158.588 Q18.37,159.236 15.634,159.236 z" fill="#000000"/>
    <path d="M114.902,111.572 L114.902,102.5 Q114.902,94.868 113.966,87.956 Q113.03,81.044 109.934,75.788 Q106.838,70.532 101.078,67.364 Q95.318,64.196 85.526,64.196 Q76.31,64.196 70.046,67.004 Q63.782,69.812 60.038,74.852 Q56.294,79.892 54.638,86.948 Q52.982,94.004 52.982,102.5 Q52.982,110.996 54.638,118.052 Q56.294,125.108 60.038,130.148 Q63.782,135.188 70.046,137.996 Q76.31,140.804 85.526,140.804 Q88.118,140.804 91.358,140.588 Q94.598,140.372 98.054,139.868 Q101.51,139.364 104.966,138.428 Q108.422,137.492 111.302,136.052 L111.302,117.332 Q104.678,120.212 98.27,121.508 Q91.862,122.804 85.526,122.804 Q79.046,122.804 76.166,119.492 Q73.286,116.18 72.998,111.572 z M85.526,82.196 Q88.406,82.196 90.278,83.204 Q92.15,84.212 93.23,85.868 Q94.31,87.524 94.742,89.684 Q95.174,91.844 95.318,94.292 L72.854,94.292 Q73.718,89.108 76.454,85.652 Q79.19,82.196 85.526,82.196 z" fill="#000000"/>
    <path d="M182.034,138.5 L168.642,138.5 L167.634,135.908 Q163.746,138.212 158.706,139.508 Q153.666,140.804 149.49,140.804 Q139.986,140.804 133.65,138.284 Q127.314,135.764 123.57,130.868 Q119.826,125.972 118.314,118.844 Q116.802,111.716 116.802,102.5 Q116.802,93.14 118.314,86.012 Q119.826,78.884 123.57,74.06 Q127.314,69.236 133.65,66.716 Q139.986,64.196 149.49,64.196 Q152.514,64.196 156.402,64.988 Q160.29,65.78 163.17,66.932 L163.17,30.5 L182.034,30.5 z M163.17,84.932 Q160.722,83.924 157.194,83.06 Q153.666,82.196 149.778,82.196 Q145.458,82.196 142.794,83.708 Q140.13,85.22 138.618,87.956 Q137.106,90.692 136.602,94.436 Q136.098,98.18 136.098,102.5 Q136.098,106.82 136.602,110.564 Q137.106,114.308 138.618,117.044 Q140.13,119.78 142.794,121.292 Q145.458,122.804 149.778,122.804 Q153.666,122.804 157.194,121.94 Q160.722,121.076 163.17,120.068 z" fill="#000000"/>
    <path d="M30.909,24.79 C32.031,24.79 33.028,25.351 33.714,26.285 C34.15,26.846 34.337,27.532 34.337,28.155 C34.337,29.214 33.901,30.149 33.028,30.835 C29.663,33.265 27.669,37.004 27.669,40.993 C27.669,47.91 33.464,53.519 40.569,53.519 C47.673,53.519 53.406,47.91 53.406,40.993 C53.406,36.942 51.537,33.203 48.172,30.835 C47.299,30.149 46.801,29.152 46.801,28.217 C46.801,27.532 47.05,26.846 47.424,26.286 C48.109,25.288 49.169,24.79 50.228,24.79 C50.914,24.79 51.599,25.039 52.16,25.475 C57.208,29.09 60.199,34.823 60.199,40.93 C60.199,51.462 51.475,60 40.569,60 C29.663,60 20.938,51.462 20.938,40.93 C20.938,34.823 23.93,29.09 28.915,25.475 C29.476,25.039 30.224,24.79 30.909,24.79 z M40.569,17 C42.75,17 44.433,18.558 44.433,20.49 L44.433,40.806 C44.433,42.738 42.75,44.296 40.569,44.296 C38.388,44.296 36.643,42.738 36.643,40.806 L36.643,20.49 C36.643,18.558 38.388,17 40.569,17 z" fill="#000000"/>
  </g>
</svg>
